<svg xmlns="http://www.w3.org/2000/svg" xmlns:xlink="http://www.w3.org/1999/xlink" width="2500" zoomAndPan="magnify" viewBox="0 0 1874.88 194.249992" height="259" preserveAspectRatio="xMidYMid meet" version="1.2"><defs/><g id="3ccabb0974"><g style="fill:#000000;fill-opacity:1;"><g transform="translate(275.459188, 153.532199)"><path style="stroke:none" d="M 67.882812 -109.339844 L 67.882812 -12.0625 L 61.660156 -12.0625 L 67.878906 -12.265625 C 67.90625 -11.445312 68.078125 -10.789062 68.402344 -10.292969 C 68.761719 -9.742188 69.382812 -9.238281 70.261719 -8.78125 C 71.0625 -8.351562 71.960938 -8.136719 72.957031 -8.136719 L 81.285156 -8.136719 L 81.285156 6.222656 L 29.394531 6.222656 L 29.394531 -8.136719 L 37.914062 -8.136719 C 39.332031 -8.136719 40.527344 -8.597656 41.5 -9.511719 C 42.445312 -10.398438 42.945312 -11.410156 42.996094 -12.539062 L 49.210938 -12.253906 L 42.988281 -12.253906 L 42.988281 -109.339844 L 49.210938 -109.339844 L 49.210938 -103.113281 L 14.554688 -103.113281 C 13.464844 -103.113281 12.675781 -102.84375 12.191406 -102.304688 C 11.53125 -101.570312 11.203125 -100.660156 11.203125 -99.574219 L 11.203125 -90.285156 L -3.351562 -90.285156 L -3.351562 -127.339844 L 5.183594 -123.925781 C 7.210938 -123.113281 10.273438 -122.484375 14.371094 -122.035156 C 18.804688 -121.550781 22.054688 -121.304688 24.128906 -121.304688 L 86.550781 -121.304688 C 94.945312 -121.304688 101.320312 -122.179688 105.6875 -123.925781 L 114.222656 -127.339844 L 114.222656 -90.285156 L 99.667969 -90.285156 L 99.667969 -99.574219 C 99.667969 -100.617188 99.332031 -101.5 98.660156 -102.21875 C 98.105469 -102.816406 97.324219 -103.113281 96.316406 -103.113281 L 61.660156 -103.113281 L 61.660156 -109.339844 Z M 55.433594 -115.5625 L 96.316406 -115.5625 C 100.929688 -115.5625 104.742188 -113.945312 107.761719 -110.710938 C 110.664062 -107.601562 112.113281 -103.890625 112.113281 -99.574219 L 112.113281 -96.507812 L 105.890625 -96.507812 L 105.890625 -102.730469 L 107.996094 -102.730469 L 107.996094 -96.507812 L 101.773438 -96.507812 L 101.773438 -118.148438 L 107.996094 -118.148438 L 110.308594 -112.367188 C 104.460938 -110.027344 96.542969 -108.859375 86.550781 -108.859375 L 24.128906 -108.859375 C 21.601562 -108.859375 17.898438 -109.128906 13.011719 -109.664062 C 7.789062 -110.234375 3.640625 -111.136719 0.5625 -112.367188 L 2.871094 -118.148438 L 9.097656 -118.148438 L 9.097656 -96.507812 L 2.871094 -96.507812 L 2.871094 -102.730469 L 4.980469 -102.730469 L 4.980469 -96.507812 L -1.246094 -96.507812 L -1.246094 -99.574219 C -1.246094 -103.84375 0.148438 -107.53125 2.9375 -110.628906 C 5.898438 -113.917969 9.769531 -115.5625 14.554688 -115.5625 L 55.433594 -115.5625 L 55.433594 -12.113281 L 55.429688 -11.972656 C 55.226562 -7.484375 53.425781 -3.640625 50.03125 -0.445312 C 46.660156 2.722656 42.625 4.308594 37.914062 4.308594 L 35.617188 4.308594 L 35.617188 -1.914062 L 41.839844 -1.914062 L 41.839844 0 L 35.617188 0 L 35.617188 -6.222656 L 75.0625 -6.222656 L 75.0625 0 L 68.839844 0 L 68.839844 -1.914062 L 75.0625 -1.914062 L 75.0625 4.308594 L 72.957031 4.308594 C 69.867188 4.308594 67.0625 3.628906 64.542969 2.273438 C 61.722656 0.8125 59.53125 -1.109375 57.976562 -3.492188 C 56.386719 -5.933594 55.539062 -8.722656 55.4375 -11.863281 L 55.433594 -11.964844 Z M 55.433594 -115.5625 "/></g></g><g style="fill:#000000;fill-opacity:1;"><g transform="translate(406.053139, 153.532199)"><path style="stroke:none" d="M 126.378906 -8.136719 L 134.136719 -8.136719 L 134.136719 6.222656 L 82.433594 6.222656 L 82.433594 -8.136719 L 90.191406 -8.136719 C 90.515625 -8.136719 90.734375 -8.164062 90.851562 -8.214844 L 90.808594 -8.199219 C 91.105469 -8.585938 91.308594 -8.910156 91.417969 -9.171875 C 91.433594 -9.21875 91.445312 -9.246094 91.449219 -9.257812 C 91.4375 -9.214844 91.433594 -9.160156 91.433594 -9.09375 C 91.433594 -9.832031 91.304688 -10.558594 91.042969 -11.277344 L 96.890625 -13.402344 L 91.140625 -11.027344 L 80.609375 -36.492188 L 86.359375 -38.871094 L 86.359375 -32.648438 L 37.914062 -32.648438 L 37.914062 -38.871094 L 43.644531 -36.445312 L 33.113281 -11.554688 L 27.382812 -13.976562 L 33.191406 -11.746094 C 32.828125 -10.804688 32.648438 -9.984375 32.648438 -9.285156 L 32.683594 -9.300781 C 32.800781 -9 33.023438 -8.636719 33.339844 -8.203125 C 33.335938 -8.210938 33.316406 -8.222656 33.289062 -8.238281 C 33.433594 -8.171875 33.699219 -8.136719 34.085938 -8.136719 L 41.839844 -8.136719 L 41.839844 6.222656 L -7.179688 6.222656 L -7.179688 -8.136719 L 0.574219 -8.136719 C 1.988281 -8.136719 3.539062 -8.710938 5.234375 -9.851562 C 7.046875 -11.074219 8.605469 -13.035156 9.90625 -15.726562 C 37.796875 -75.332031 52.300781 -106.492188 53.410156 -109.207031 C 55.328125 -113.945312 56.328125 -116.882812 56.40625 -118.015625 L 56.820312 -123.796875 L 68.355469 -123.796875 L 117.304688 -15.585938 L 111.636719 -13.019531 L 117.203125 -15.804688 C 119.757812 -10.695312 122.816406 -8.136719 126.378906 -8.136719 Z M 126.378906 4.308594 C 121.929688 4.308594 117.921875 2.964844 114.355469 0.28125 C 111.117188 -2.15625 108.355469 -5.664062 106.070312 -10.238281 L 106.015625 -10.347656 L 58.667969 -115.007812 L 64.339844 -117.570312 L 64.339844 -111.347656 L 62.617188 -111.347656 L 62.617188 -117.570312 L 68.824219 -117.128906 C 68.648438 -114.6875 67.351562 -110.476562 64.929688 -104.492188 C 63.742188 -101.589844 49.136719 -70.195312 21.113281 -10.316406 C 18.839844 -5.605469 15.867188 -2.007812 12.191406 0.46875 C 8.394531 3.027344 4.523438 4.308594 0.574219 4.308594 L -0.957031 4.308594 L -0.957031 -1.914062 L 5.265625 -1.914062 L 5.265625 0 L -0.957031 0 L -0.957031 -6.222656 L 35.617188 -6.222656 L 35.617188 0 L 29.394531 0 L 29.394531 -1.914062 L 35.617188 -1.914062 L 35.617188 4.308594 L 34.085938 4.308594 C 29.441406 4.308594 25.859375 2.605469 23.339844 -0.796875 C 21.246094 -3.621094 20.203125 -6.449219 20.203125 -9.285156 C 20.203125 -11.527344 20.660156 -13.832031 21.574219 -16.210938 L 21.609375 -16.308594 L 33.789062 -45.09375 L 90.519531 -45.09375 L 102.695312 -15.65625 L 102.742188 -15.53125 C 103.5 -13.441406 103.882812 -11.292969 103.882812 -9.09375 C 103.882812 -6.214844 102.8125 -3.386719 100.675781 -0.609375 C 98.152344 2.667969 94.65625 4.308594 90.191406 4.308594 L 88.65625 4.308594 L 88.65625 -1.914062 L 94.882812 -1.914062 L 94.882812 0 L 88.65625 0 L 88.65625 -6.222656 L 127.914062 -6.222656 L 127.914062 0 L 121.6875 0 L 121.6875 -1.914062 L 127.914062 -1.914062 L 127.914062 4.308594 Z M 40.402344 -50.839844 L 84.0625 -50.839844 L 84.0625 -44.617188 L 78.300781 -42.261719 L 56.855469 -94.726562 L 62.617188 -97.082031 L 68.347656 -94.65625 L 46.132812 -42.191406 L 40.402344 -44.617188 Z M 31.011719 -38.394531 L 62.714844 -113.285156 L 93.328125 -38.394531 Z M 31.011719 -38.394531 "/></g></g><g style="fill:#000000;fill-opacity:1;"><g transform="translate(566.327321, 153.532199)"><path style="stroke:none" d="M 95.742188 -8.136719 C 97.070312 -8.136719 98.226562 -8.585938 99.210938 -9.480469 C 100.109375 -10.300781 100.582031 -11.257812 100.632812 -12.347656 L 106.847656 -12.0625 L 100.625 -12.0625 L 100.625 -53.808594 L 106.847656 -53.808594 L 106.847656 -47.585938 L 36.191406 -47.585938 L 36.191406 -53.808594 L 42.414062 -53.808594 L 42.414062 -12.0625 L 36.191406 -12.0625 L 42.40625 -12.347656 C 42.457031 -11.257812 42.929688 -10.300781 43.832031 -9.480469 C 44.8125 -8.585938 45.96875 -8.136719 47.296875 -8.136719 L 55.816406 -8.136719 L 55.816406 6.222656 L 4.308594 6.222656 L 4.308594 -8.136719 L 12.828125 -8.136719 C 14.210938 -8.136719 15.351562 -8.574219 16.253906 -9.445312 C 17.175781 -10.34375 17.664062 -11.375 17.71875 -12.539062 L 23.9375 -12.253906 L 17.710938 -12.253906 L 17.710938 -102.636719 L 23.9375 -102.636719 L 17.71875 -102.355469 C 17.667969 -103.480469 17.167969 -104.492188 16.222656 -105.378906 C 15.25 -106.296875 14.121094 -106.753906 12.828125 -106.753906 L 4.308594 -106.753906 L 4.308594 -121.113281 L 55.816406 -121.113281 L 55.816406 -106.753906 L 47.296875 -106.753906 C 45.96875 -106.753906 44.8125 -106.304688 43.832031 -105.410156 C 42.929688 -104.589844 42.457031 -103.636719 42.40625 -102.546875 L 36.191406 -102.828125 L 42.414062 -102.828125 L 42.414062 -59.550781 L 36.191406 -59.550781 L 36.191406 -65.777344 L 106.847656 -65.777344 L 106.847656 -59.550781 L 100.625 -59.550781 L 100.625 -102.636719 C 100.625 -103.628906 100.464844 -104.273438 100.136719 -104.574219 C 98.613281 -106.027344 97.148438 -106.753906 95.742188 -106.753906 L 87.222656 -106.753906 L 87.222656 -121.113281 L 138.730469 -121.113281 L 138.730469 -106.753906 L 130.210938 -106.753906 C 128.84375 -106.753906 127.664062 -106.316406 126.667969 -105.4375 C 125.816406 -104.6875 125.367188 -103.785156 125.320312 -102.738281 L 119.105469 -103.019531 L 125.328125 -103.019531 L 125.328125 -12.0625 L 119.105469 -12.0625 L 125.320312 -12.347656 C 125.371094 -11.25 125.53125 -10.578125 125.796875 -10.332031 C 127.40625 -8.871094 128.878906 -8.136719 130.210938 -8.136719 L 138.730469 -8.136719 L 138.730469 6.222656 L 87.222656 6.222656 L 87.222656 -8.136719 Z M 95.742188 4.308594 L 93.445312 4.308594 L 93.445312 -1.914062 L 99.667969 -1.914062 L 99.667969 0 L 93.445312 0 L 93.445312 -6.222656 L 132.507812 -6.222656 L 132.507812 0 L 126.285156 0 L 126.285156 -1.914062 L 132.507812 -1.914062 L 132.507812 4.308594 L 130.210938 4.308594 C 125.671875 4.308594 121.394531 2.488281 117.386719 -1.15625 C 114.59375 -3.71875 113.09375 -7.261719 112.886719 -11.78125 L 112.878906 -11.921875 L 112.878906 -103.160156 L 112.886719 -103.300781 C 113.09375 -107.867188 114.941406 -111.691406 118.433594 -114.769531 C 121.78125 -117.722656 125.707031 -119.199219 130.210938 -119.199219 L 132.507812 -119.199219 L 132.507812 -112.976562 L 126.285156 -112.976562 L 126.285156 -114.890625 L 132.507812 -114.890625 L 132.507812 -108.667969 L 93.445312 -108.667969 L 93.445312 -114.890625 L 99.667969 -114.890625 L 99.667969 -112.976562 L 93.445312 -112.976562 L 93.445312 -119.199219 L 95.742188 -119.199219 C 100.464844 -119.199219 104.746094 -117.375 108.582031 -113.71875 C 111.574219 -110.957031 113.074219 -107.261719 113.074219 -102.636719 L 113.074219 -53.328125 L 29.96875 -53.328125 L 29.96875 -102.96875 L 29.972656 -103.109375 C 30.179688 -107.636719 32.003906 -111.46875 35.445312 -114.605469 C 38.800781 -117.667969 42.753906 -119.199219 47.296875 -119.199219 L 49.59375 -119.199219 L 49.59375 -112.976562 L 43.371094 -112.976562 L 43.371094 -114.890625 L 49.59375 -114.890625 L 49.59375 -108.667969 L 10.53125 -108.667969 L 10.53125 -114.890625 L 16.753906 -114.890625 L 16.753906 -112.976562 L 10.53125 -112.976562 L 10.53125 -119.199219 L 12.828125 -119.199219 C 17.410156 -119.199219 21.386719 -117.613281 24.753906 -114.445312 C 28.148438 -111.25 29.949219 -107.40625 30.152344 -102.917969 L 30.160156 -102.777344 L 30.160156 -12.113281 L 30.152344 -11.972656 C 29.949219 -7.519531 28.207031 -3.699219 24.917969 -0.511719 C 21.605469 2.703125 17.574219 4.308594 12.828125 4.308594 L 10.53125 4.308594 L 10.53125 -1.914062 L 16.753906 -1.914062 L 16.753906 0 L 10.53125 0 L 10.53125 -6.222656 L 49.59375 -6.222656 L 49.59375 0 L 43.371094 0 L 43.371094 -1.914062 L 49.59375 -1.914062 L 49.59375 4.308594 L 47.296875 4.308594 C 42.753906 4.308594 38.800781 2.777344 35.445312 -0.285156 C 32.003906 -3.421875 30.179688 -7.253906 29.972656 -11.78125 L 29.96875 -11.921875 L 29.96875 -60.03125 L 113.074219 -60.03125 L 113.074219 -11.921875 L 113.066406 -11.78125 C 112.859375 -7.253906 111.035156 -3.421875 107.59375 -0.285156 C 104.238281 2.777344 100.285156 4.308594 95.742188 4.308594 Z M 95.742188 4.308594 "/></g></g><g style="fill:#000000;fill-opacity:1;"><g transform="translate(742.494784, 153.532199)"><path style="stroke:none" d="M 126.378906 -8.136719 L 134.136719 -8.136719 L 134.136719 6.222656 L 82.433594 6.222656 L 82.433594 -8.136719 L 90.191406 -8.136719 C 90.515625 -8.136719 90.734375 -8.164062 90.851562 -8.214844 L 90.808594 -8.199219 C 91.105469 -8.585938 91.308594 -8.910156 91.417969 -9.171875 C 91.433594 -9.21875 91.445312 -9.246094 91.449219 -9.257812 C 91.4375 -9.214844 91.433594 -9.160156 91.433594 -9.09375 C 91.433594 -9.832031 91.304688 -10.558594 91.042969 -11.277344 L 96.890625 -13.402344 L 91.140625 -11.027344 L 80.609375 -36.492188 L 86.359375 -38.871094 L 86.359375 -32.648438 L 37.914062 -32.648438 L 37.914062 -38.871094 L 43.644531 -36.445312 L 33.113281 -11.554688 L 27.382812 -13.976562 L 33.191406 -11.746094 C 32.828125 -10.804688 32.648438 -9.984375 32.648438 -9.285156 L 32.683594 -9.300781 C 32.800781 -9 33.023438 -8.636719 33.339844 -8.203125 C 33.335938 -8.210938 33.316406 -8.222656 33.289062 -8.238281 C 33.433594 -8.171875 33.699219 -8.136719 34.085938 -8.136719 L 41.839844 -8.136719 L 41.839844 6.222656 L -7.179688 6.222656 L -7.179688 -8.136719 L 0.574219 -8.136719 C 1.988281 -8.136719 3.539062 -8.710938 5.234375 -9.851562 C 7.046875 -11.074219 8.605469 -13.035156 9.90625 -15.726562 C 37.796875 -75.332031 52.300781 -106.492188 53.410156 -109.207031 C 55.328125 -113.945312 56.328125 -116.882812 56.40625 -118.015625 L 56.820312 -123.796875 L 68.355469 -123.796875 L 117.304688 -15.585938 L 111.636719 -13.019531 L 117.203125 -15.804688 C 119.757812 -10.695312 122.816406 -8.136719 126.378906 -8.136719 Z M 126.378906 4.308594 C 121.929688 4.308594 117.921875 2.964844 114.355469 0.28125 C 111.117188 -2.15625 108.355469 -5.664062 106.070312 -10.238281 L 106.015625 -10.347656 L 58.667969 -115.007812 L 64.339844 -117.570312 L 64.339844 -111.347656 L 62.617188 -111.347656 L 62.617188 -117.570312 L 68.824219 -117.128906 C 68.648438 -114.6875 67.351562 -110.476562 64.929688 -104.492188 C 63.742188 -101.589844 49.136719 -70.195312 21.113281 -10.316406 C 18.839844 -5.605469 15.867188 -2.007812 12.191406 0.46875 C 8.394531 3.027344 4.523438 4.308594 0.574219 4.308594 L -0.957031 4.308594 L -0.957031 -1.914062 L 5.265625 -1.914062 L 5.265625 0 L -0.957031 0 L -0.957031 -6.222656 L 35.617188 -6.222656 L 35.617188 0 L 29.394531 0 L 29.394531 -1.914062 L 35.617188 -1.914062 L 35.617188 4.308594 L 34.085938 4.308594 C 29.441406 4.308594 25.859375 2.605469 23.339844 -0.796875 C 21.246094 -3.621094 20.203125 -6.449219 20.203125 -9.285156 C 20.203125 -11.527344 20.660156 -13.832031 21.574219 -16.210938 L 21.609375 -16.308594 L 33.789062 -45.09375 L 90.519531 -45.09375 L 102.695312 -15.65625 L 102.742188 -15.53125 C 103.5 -13.441406 103.882812 -11.292969 103.882812 -9.09375 C 103.882812 -6.214844 102.8125 -3.386719 100.675781 -0.609375 C 98.152344 2.667969 94.65625 4.308594 90.191406 4.308594 L 88.65625 4.308594 L 88.65625 -1.914062 L 94.882812 -1.914062 L 94.882812 0 L 88.65625 0 L 88.65625 -6.222656 L 127.914062 -6.222656 L 127.914062 0 L 121.6875 0 L 121.6875 -1.914062 L 127.914062 -1.914062 L 127.914062 4.308594 Z M 40.402344 -50.839844 L 84.0625 -50.839844 L 84.0625 -44.617188 L 78.300781 -42.261719 L 56.855469 -94.726562 L 62.617188 -97.082031 L 68.347656 -94.65625 L 46.132812 -42.191406 L 40.402344 -44.617188 Z M 31.011719 -38.394531 L 62.714844 -113.285156 L 93.328125 -38.394531 Z M 31.011719 -38.394531 "/></g></g><g style="fill:#000000;fill-opacity:1;"><g transform="translate(886.492693, 153.532199)"><path style="stroke:none" d="M 128.105469 -106.753906 L 126.570312 -106.753906 C 125.058594 -106.753906 123.492188 -106.195312 121.875 -105.078125 C 120.046875 -103.816406 118.410156 -101.792969 116.972656 -99.011719 L 111.445312 -101.871094 L 117.089844 -99.253906 L 73.625 -5.425781 L 67.976562 -8.042969 L 73.746094 -5.707031 C 71.820312 -0.953125 70.820312 1.992188 70.738281 3.125 L 70.324219 8.902344 L 58.796875 8.902344 L 9.84375 -99.109375 L 15.511719 -101.679688 L 9.925781 -98.933594 C 7.363281 -104.148438 4.308594 -106.753906 0.765625 -106.753906 L -6.988281 -106.753906 L -6.988281 -121.113281 L 44.710938 -121.113281 L 44.710938 -106.753906 L 36.957031 -106.753906 C 36.675781 -106.753906 36.503906 -106.738281 36.4375 -106.707031 C 36.515625 -106.742188 36.566406 -106.777344 36.589844 -106.808594 C 36.273438 -106.363281 36.058594 -105.984375 35.9375 -105.675781 L 35.902344 -105.699219 C 35.902344 -104.804688 36.035156 -103.839844 36.292969 -102.804688 L 30.253906 -101.296875 L 36.011719 -103.660156 L 70.289062 -20.171875 L 64.53125 -17.808594 L 58.800781 -20.238281 L 94.035156 -103.34375 L 99.765625 -100.914062 L 93.957031 -103.148438 C 94.316406 -104.085938 94.496094 -104.90625 94.496094 -105.605469 L 94.464844 -105.589844 C 94.34375 -105.890625 94.125 -106.257812 93.804688 -106.6875 C 93.8125 -106.679688 93.828125 -106.667969 93.859375 -106.65625 C 93.714844 -106.71875 93.449219 -106.753906 93.0625 -106.753906 L 85.5 -106.753906 L 85.5 -121.113281 L 134.328125 -121.113281 L 134.328125 -106.753906 Z M 128.105469 -119.199219 L 128.105469 -112.976562 L 121.878906 -112.976562 L 121.878906 -114.890625 L 128.105469 -114.890625 L 128.105469 -108.667969 L 91.722656 -108.667969 L 91.722656 -114.890625 L 97.945312 -114.890625 L 97.945312 -112.976562 L 91.722656 -112.976562 L 91.722656 -119.199219 L 93.0625 -119.199219 C 97.707031 -119.199219 101.285156 -117.5 103.808594 -114.097656 C 105.898438 -111.273438 106.945312 -108.441406 106.945312 -105.605469 C 106.945312 -103.367188 106.488281 -101.058594 105.574219 -98.679688 L 105.535156 -98.582031 L 64.4375 -1.644531 L 24.328125 -99.347656 L 24.21875 -99.785156 C 23.710938 -101.8125 23.457031 -103.785156 23.457031 -105.699219 C 23.457031 -108.417969 24.441406 -111.175781 26.410156 -113.972656 C 28.863281 -117.457031 32.378906 -119.199219 36.957031 -119.199219 L 38.488281 -119.199219 L 38.488281 -112.976562 L 32.265625 -112.976562 L 32.265625 -114.890625 L 38.488281 -114.890625 L 38.488281 -108.667969 L -0.765625 -108.667969 L -0.765625 -114.890625 L 5.457031 -114.890625 L 5.457031 -112.976562 L -0.765625 -112.976562 L -0.765625 -119.199219 L 0.765625 -119.199219 C 5.238281 -119.199219 9.257812 -117.832031 12.832031 -115.09375 C 16.0625 -112.617188 18.816406 -109.0625 21.09375 -104.425781 L 21.136719 -104.335938 L 68.476562 0.113281 L 62.808594 2.679688 L 62.808594 -3.542969 L 64.53125 -3.542969 L 64.53125 2.679688 L 58.324219 2.238281 C 58.496094 -0.203125 59.792969 -4.410156 62.207031 -10.378906 L 62.265625 -10.519531 L 105.855469 -104.609375 L 105.917969 -104.730469 C 108.308594 -109.351562 111.269531 -112.882812 114.800781 -115.320312 C 118.546875 -117.90625 122.46875 -119.199219 126.570312 -119.199219 Z M 128.105469 -119.199219 "/></g></g><g style="fill:#000000;fill-opacity:1;"><g transform="translate(1030.490603, 153.532199)"><path style="stroke:none" d="M 126.378906 -8.136719 L 134.136719 -8.136719 L 134.136719 6.222656 L 82.433594 6.222656 L 82.433594 -8.136719 L 90.191406 -8.136719 C 90.515625 -8.136719 90.734375 -8.164062 90.851562 -8.214844 L 90.808594 -8.199219 C 91.105469 -8.585938 91.308594 -8.910156 91.417969 -9.171875 C 91.433594 -9.21875 91.445312 -9.246094 91.449219 -9.257812 C 91.4375 -9.214844 91.433594 -9.160156 91.433594 -9.09375 C 91.433594 -9.832031 91.304688 -10.558594 91.042969 -11.277344 L 96.890625 -13.402344 L 91.140625 -11.027344 L 80.609375 -36.492188 L 86.359375 -38.871094 L 86.359375 -32.648438 L 37.914062 -32.648438 L 37.914062 -38.871094 L 43.644531 -36.445312 L 33.113281 -11.554688 L 27.382812 -13.976562 L 33.191406 -11.746094 C 32.828125 -10.804688 32.648438 -9.984375 32.648438 -9.285156 L 32.683594 -9.300781 C 32.800781 -9 33.023438 -8.636719 33.339844 -8.203125 C 33.335938 -8.210938 33.316406 -8.222656 33.289062 -8.238281 C 33.433594 -8.171875 33.699219 -8.136719 34.085938 -8.136719 L 41.839844 -8.136719 L 41.839844 6.222656 L -7.179688 6.222656 L -7.179688 -8.136719 L 0.574219 -8.136719 C 1.988281 -8.136719 3.539062 -8.710938 5.234375 -9.851562 C 7.046875 -11.074219 8.605469 -13.035156 9.90625 -15.726562 C 37.796875 -75.332031 52.300781 -106.492188 53.410156 -109.207031 C 55.328125 -113.945312 56.328125 -116.882812 56.40625 -118.015625 L 56.820312 -123.796875 L 68.355469 -123.796875 L 117.304688 -15.585938 L 111.636719 -13.019531 L 117.203125 -15.804688 C 119.757812 -10.695312 122.816406 -8.136719 126.378906 -8.136719 Z M 126.378906 4.308594 C 121.929688 4.308594 117.921875 2.964844 114.355469 0.28125 C 111.117188 -2.15625 108.355469 -5.664062 106.070312 -10.238281 L 106.015625 -10.347656 L 58.667969 -115.007812 L 64.339844 -117.570312 L 64.339844 -111.347656 L 62.617188 -111.347656 L 62.617188 -117.570312 L 68.824219 -117.128906 C 68.648438 -114.6875 67.351562 -110.476562 64.929688 -104.492188 C 63.742188 -101.589844 49.136719 -70.195312 21.113281 -10.316406 C 18.839844 -5.605469 15.867188 -2.007812 12.191406 0.46875 C 8.394531 3.027344 4.523438 4.308594 0.574219 4.308594 L -0.957031 4.308594 L -0.957031 -1.914062 L 5.265625 -1.914062 L 5.265625 0 L -0.957031 0 L -0.957031 -6.222656 L 35.617188 -6.222656 L 35.617188 0 L 29.394531 0 L 29.394531 -1.914062 L 35.617188 -1.914062 L 35.617188 4.308594 L 34.085938 4.308594 C 29.441406 4.308594 25.859375 2.605469 23.339844 -0.796875 C 21.246094 -3.621094 20.203125 -6.449219 20.203125 -9.285156 C 20.203125 -11.527344 20.660156 -13.832031 21.574219 -16.210938 L 21.609375 -16.308594 L 33.789062 -45.09375 L 90.519531 -45.09375 L 102.695312 -15.65625 L 102.742188 -15.53125 C 103.5 -13.441406 103.882812 -11.292969 103.882812 -9.09375 C 103.882812 -6.214844 102.8125 -3.386719 100.675781 -0.609375 C 98.152344 2.667969 94.65625 4.308594 90.191406 4.308594 L 88.65625 4.308594 L 88.65625 -1.914062 L 94.882812 -1.914062 L 94.882812 0 L 88.65625 0 L 88.65625 -6.222656 L 127.914062 -6.222656 L 127.914062 0 L 121.6875 0 L 121.6875 -1.914062 L 127.914062 -1.914062 L 127.914062 4.308594 Z M 40.402344 -50.839844 L 84.0625 -50.839844 L 84.0625 -44.617188 L 78.300781 -42.261719 L 56.855469 -94.726562 L 62.617188 -97.082031 L 68.347656 -94.65625 L 46.132812 -42.191406 L 40.402344 -44.617188 Z M 31.011719 -38.394531 L 62.714844 -113.285156 L 93.328125 -38.394531 Z M 31.011719 -38.394531 "/></g></g><g style="fill:#000000;fill-opacity:1;"><g transform="translate(1187.892486, 153.532199)"><path style="stroke:none" d="M 72.722656 8.902344 C 51.550781 8.765625 34.722656 2.769531 22.238281 -9.082031 C 9.644531 -21.03125 3.351562 -37.183594 3.351562 -57.542969 C 3.351562 -77.898438 9.644531 -94.050781 22.238281 -106 C 34.734375 -117.863281 51.578125 -123.796875 72.765625 -123.796875 C 81.199219 -123.796875 89.6875 -122.710938 98.230469 -120.539062 C 106.878906 -118.34375 114.402344 -115.296875 120.808594 -111.398438 L 123.28125 -109.894531 L 129.046875 -72.667969 L 115.203125 -72.667969 L 114.023438 -77.382812 C 111.65625 -86.847656 107.160156 -93.878906 100.527344 -98.480469 C 93.675781 -103.230469 84.359375 -105.605469 72.574219 -105.605469 C 59.21875 -105.605469 48.753906 -101.433594 41.179688 -93.089844 C 33.449219 -84.574219 29.585938 -72.695312 29.585938 -57.445312 C 29.585938 -47.425781 31.351562 -38.792969 34.890625 -31.550781 C 38.304688 -24.558594 43.242188 -19.144531 49.707031 -15.308594 C 56.257812 -11.421875 63.945312 -9.480469 72.765625 -9.480469 C 81.917969 -9.480469 89.859375 -10.828125 96.582031 -13.53125 C 102.921875 -16.078125 108.199219 -20.304688 112.410156 -26.207031 C 116.636719 -32.136719 119.03125 -39.613281 119.59375 -48.644531 L 119.960938 -54.476562 L 134.273438 -54.476562 L 131.5 -19.949219 L 130.640625 -18.628906 C 125.015625 -9.972656 116.9375 -3.191406 106.414062 1.714844 C 96.136719 6.507812 84.917969 8.902344 72.765625 8.902344 Z M 72.765625 -3.542969 C 83.078125 -3.542969 92.542969 -5.550781 101.15625 -9.566406 C 109.523438 -13.46875 115.875 -18.75 120.207031 -25.414062 L 125.421875 -22.019531 L 119.21875 -22.519531 L 121.324219 -48.753906 L 127.53125 -48.253906 L 127.53125 -42.03125 L 125.804688 -42.03125 L 125.804688 -48.253906 L 132.015625 -47.867188 C 131.304688 -36.46875 128.148438 -26.839844 122.542969 -18.984375 C 116.925781 -11.101562 109.816406 -5.433594 101.222656 -1.980469 C 93.011719 1.320312 83.523438 2.96875 72.765625 2.96875 C 61.667969 2.96875 51.867188 0.445312 43.355469 -4.605469 C 34.757812 -9.707031 28.207031 -16.867188 23.703125 -26.089844 C 19.328125 -35.054688 17.136719 -45.507812 17.136719 -57.445312 C 17.136719 -75.898438 22.082031 -90.570312 31.964844 -101.457031 C 42.007812 -112.519531 55.542969 -118.050781 72.574219 -118.050781 C 86.957031 -118.050781 98.636719 -114.9375 107.621094 -108.707031 C 116.816406 -102.328125 122.976562 -92.894531 126.097656 -80.402344 L 120.0625 -78.890625 L 120.0625 -85.117188 L 121.785156 -85.117188 L 121.785156 -78.890625 L 115.636719 -77.9375 L 111.421875 -105.128906 L 117.570312 -106.082031 L 114.335938 -100.765625 C 108.996094 -104.015625 102.605469 -106.585938 95.167969 -108.476562 C 87.628906 -110.390625 80.160156 -111.347656 72.765625 -111.347656 C 54.886719 -111.347656 40.902344 -106.558594 30.804688 -96.972656 C 20.800781 -87.476562 15.796875 -74.332031 15.796875 -57.542969 C 15.796875 -40.75 20.800781 -27.605469 30.804688 -18.109375 C 40.914062 -8.515625 54.914062 -3.660156 72.804688 -3.542969 Z M 72.765625 -3.542969 "/></g></g><g style="fill:#000000;fill-opacity:1;"><g transform="translate(1356.209029, 153.532199)"><path style="stroke:none" d="M 13.210938 -8.136719 C 15.203125 -8.136719 16.90625 -8.703125 18.324219 -9.839844 C 19.320312 -10.636719 19.820312 -11.441406 19.820312 -12.253906 L 19.820312 -102.636719 C 19.820312 -103.449219 19.320312 -104.257812 18.324219 -105.054688 C 16.90625 -106.1875 15.140625 -106.753906 13.019531 -106.753906 L 4.308594 -106.753906 L 4.308594 -121.113281 L 60.03125 -121.113281 L 60.03125 -106.753906 L 51.316406 -106.753906 C 49.28125 -106.753906 47.578125 -106.226562 46.207031 -105.171875 C 45.15625 -104.363281 44.585938 -103.457031 44.496094 -102.457031 L 38.296875 -103.019531 L 44.519531 -103.019531 L 44.519531 -12.0625 L 38.296875 -12.0625 L 44.515625 -12.347656 C 44.554688 -11.453125 45.09375 -10.605469 46.128906 -9.800781 C 47.5625 -8.691406 49.289062 -8.136719 51.316406 -8.136719 L 59.441406 -8.136719 L 60.875 6.222656 L 4.308594 6.222656 L 4.308594 -8.136719 Z M 13.210938 4.308594 L 10.53125 4.308594 L 10.53125 -1.914062 L 16.753906 -1.914062 L 16.753906 0 L 10.53125 0 L 10.53125 -6.222656 L 54 -6.222656 L 54 0 L 47.804688 0.621094 L 47.613281 -1.296875 L 53.808594 -1.914062 L 53.808594 4.308594 L 51.316406 4.308594 C 46.453125 4.308594 42.179688 2.882812 38.507812 0.0351562 C 34.4375 -3.117188 32.292969 -7.054688 32.082031 -11.78125 L 32.074219 -11.921875 L 32.074219 -103.300781 L 32.097656 -103.582031 C 32.519531 -108.199219 34.691406 -112.015625 38.621094 -115.039062 C 42.226562 -117.8125 46.460938 -119.199219 51.316406 -119.199219 L 53.808594 -119.199219 L 53.808594 -112.976562 L 47.585938 -112.976562 L 47.585938 -114.890625 L 53.808594 -114.890625 L 53.808594 -108.667969 L 10.53125 -108.667969 L 10.53125 -114.890625 L 16.753906 -114.890625 L 16.753906 -112.976562 L 10.53125 -112.976562 L 10.53125 -119.199219 L 13.019531 -119.199219 C 18.050781 -119.199219 22.410156 -117.722656 26.101562 -114.773438 C 30.210938 -111.484375 32.265625 -107.4375 32.265625 -102.636719 L 32.265625 -12.253906 C 32.265625 -7.453125 30.210938 -3.40625 26.101562 -0.117188 C 22.410156 2.832031 18.113281 4.308594 13.210938 4.308594 Z M 13.210938 4.308594 "/></g></g><g style="fill:#000000;fill-opacity:1;"><g transform="translate(1453.867544, 153.532199)"><path style="stroke:none" d="M 142.179688 -57.445312 C 142.179688 -37.894531 135.996094 -22.367188 123.632812 -10.859375 C 111.394531 0.53125 95.011719 6.222656 74.488281 6.222656 L 4.308594 6.222656 L 4.308594 -8.136719 L 13.019531 -8.136719 C 14.367188 -8.136719 15.453125 -8.550781 16.28125 -9.378906 C 17.183594 -10.285156 17.664062 -11.335938 17.71875 -12.539062 L 23.9375 -12.253906 L 17.710938 -12.253906 L 17.710938 -102.636719 L 23.9375 -102.636719 L 17.71875 -102.378906 C 17.664062 -103.710938 17.222656 -104.75 16.398438 -105.5 C 15.480469 -106.335938 14.289062 -106.753906 12.828125 -106.753906 L 4.308594 -106.753906 L 4.308594 -121.113281 L 74.488281 -121.113281 C 87.972656 -121.113281 99.777344 -118.601562 109.902344 -113.570312 C 120.285156 -108.417969 128.28125 -100.953125 133.886719 -91.179688 C 139.414062 -81.539062 142.179688 -70.296875 142.179688 -57.445312 Z M 129.730469 -57.445312 C 129.730469 -68.085938 127.515625 -77.265625 123.089844 -84.988281 C 118.734375 -92.574219 112.496094 -98.386719 104.367188 -102.421875 C 95.984375 -106.585938 86.023438 -108.667969 74.488281 -108.667969 L 10.53125 -108.667969 L 10.53125 -114.890625 L 16.753906 -114.890625 L 16.753906 -112.976562 L 10.53125 -112.976562 L 10.53125 -119.199219 L 12.828125 -119.199219 C 17.496094 -119.199219 21.476562 -117.703125 24.769531 -114.710938 C 28.160156 -111.628906 29.953125 -107.691406 30.152344 -102.894531 L 30.160156 -102.765625 L 30.160156 -12.113281 L 30.152344 -11.972656 C 29.953125 -7.554688 28.261719 -3.757812 25.082031 -0.578125 C 21.824219 2.679688 17.804688 4.308594 13.019531 4.308594 L 10.53125 4.308594 L 10.53125 -1.914062 L 16.753906 -1.914062 L 16.753906 0 L 10.53125 0 L 10.53125 -6.222656 L 74.488281 -6.222656 C 91.75 -6.222656 105.304688 -10.804688 115.152344 -19.96875 C 124.871094 -29.015625 129.730469 -41.507812 129.730469 -57.445312 Z M 42.605469 -109.148438 L 42.605469 -5.746094 L 36.382812 -5.746094 L 36.382812 -11.96875 L 74.488281 -11.96875 C 87.351562 -11.96875 97.445312 -15.929688 104.769531 -23.851562 C 112.21875 -31.914062 115.945312 -43.113281 115.945312 -57.445312 C 115.945312 -71.777344 112.21875 -82.976562 104.769531 -91.039062 C 97.445312 -98.960938 87.351562 -102.921875 74.488281 -102.921875 L 36.382812 -102.921875 L 36.382812 -109.148438 Z M 30.160156 -115.371094 L 74.488281 -115.371094 C 90.984375 -115.371094 104.125 -110.074219 113.910156 -99.488281 C 123.5625 -89.039062 128.390625 -75.027344 128.390625 -57.445312 C 128.390625 -39.863281 123.5625 -25.851562 113.910156 -15.402344 C 104.125 -4.816406 90.984375 0.480469 74.488281 0.480469 L 30.160156 0.480469 Z M 30.160156 -115.371094 "/></g></g><g style="fill:#121212;fill-opacity:1;"><g transform="translate(275.459188, 153.532199)"><path style="stroke:none" d="M 61.65625 -109.34375 L 61.65625 -12.0625 C 61.78125 -8.101562 63.695312 -5.164062 67.40625 -3.25 C 69.0625 -2.363281 70.910156 -1.921875 72.953125 -1.921875 L 75.0625 -1.921875 L 75.0625 0 L 35.609375 0 L 35.609375 -1.921875 L 37.90625 -1.921875 C 40.976562 -1.921875 43.597656 -2.941406 45.765625 -4.984375 C 47.929688 -7.023438 49.082031 -9.445312 49.21875 -12.25 L 49.21875 -109.34375 L 14.546875 -109.34375 C 11.617188 -109.34375 9.289062 -108.382812 7.5625 -106.46875 C 5.84375 -104.550781 4.984375 -102.253906 4.984375 -99.578125 L 4.984375 -96.515625 L 2.875 -96.515625 L 2.875 -118.140625 C 5.425781 -117.117188 9.03125 -116.351562 13.6875 -115.84375 C 18.351562 -115.332031 21.832031 -115.078125 24.125 -115.078125 L 86.546875 -115.078125 C 95.742188 -115.078125 102.894531 -116.097656 108 -118.140625 L 108 -96.515625 L 105.890625 -96.515625 L 105.890625 -99.578125 C 105.890625 -102.253906 104.992188 -104.550781 103.203125 -106.46875 C 101.421875 -108.382812 99.125 -109.34375 96.3125 -109.34375 Z M 61.65625 -109.34375 "/></g></g><g style="fill:#121212;fill-opacity:1;"><g transform="translate(406.053139, 153.532199)"><path style="stroke:none" d="M 126.375 -1.921875 L 127.90625 -1.921875 L 127.90625 0 L 88.65625 0 L 88.65625 -1.921875 L 90.1875 -1.921875 C 92.613281 -1.921875 94.460938 -2.75 95.734375 -4.40625 C 97.015625 -6.0625 97.65625 -7.625 97.65625 -9.09375 C 97.65625 -10.5625 97.398438 -12 96.890625 -13.40625 L 86.359375 -38.875 L 37.90625 -38.875 L 27.375 -13.984375 C 26.738281 -12.316406 26.421875 -10.75 26.421875 -9.28125 C 26.421875 -7.8125 27.054688 -6.21875 28.328125 -4.5 C 29.609375 -2.78125 31.523438 -1.921875 34.078125 -1.921875 L 35.609375 -1.921875 L 35.609375 0 L -0.953125 0 L -0.953125 -1.921875 L 0.578125 -1.921875 C 3.253906 -1.921875 5.960938 -2.84375 8.703125 -4.6875 C 11.453125 -6.539062 13.722656 -9.316406 15.515625 -13.015625 C 43.472656 -72.765625 58.023438 -104.039062 59.171875 -106.84375 C 61.335938 -112.207031 62.484375 -115.785156 62.609375 -117.578125 L 64.34375 -117.578125 L 111.640625 -13.015625 C 115.335938 -5.617188 120.25 -1.921875 126.375 -1.921875 Z M 40.40625 -44.609375 L 84.0625 -44.609375 L 62.609375 -97.078125 Z M 40.40625 -44.609375 "/></g></g><g style="fill:#121212;fill-opacity:1;"><g transform="translate(566.327321, 153.532199)"><path style="stroke:none" d="M 95.75 -1.921875 C 98.675781 -1.921875 101.222656 -2.90625 103.390625 -4.875 C 105.566406 -6.851562 106.71875 -9.25 106.84375 -12.0625 L 106.84375 -53.8125 L 36.1875 -53.8125 L 36.1875 -12.0625 C 36.3125 -9.25 37.457031 -6.851562 39.625 -4.875 C 41.800781 -2.90625 44.359375 -1.921875 47.296875 -1.921875 L 49.59375 -1.921875 L 49.59375 0 L 10.53125 0 L 10.53125 -1.921875 L 12.828125 -1.921875 C 15.890625 -1.921875 18.472656 -2.941406 20.578125 -4.984375 C 22.691406 -7.023438 23.8125 -9.445312 23.9375 -12.25 L 23.9375 -102.640625 C 23.8125 -105.441406 22.660156 -107.863281 20.484375 -109.90625 C 18.316406 -111.945312 15.765625 -112.96875 12.828125 -112.96875 L 10.53125 -112.96875 L 10.53125 -114.890625 L 49.59375 -114.890625 L 49.59375 -112.96875 L 47.296875 -112.96875 C 44.359375 -112.96875 41.800781 -111.976562 39.625 -110 C 37.457031 -108.03125 36.3125 -105.640625 36.1875 -102.828125 L 36.1875 -59.546875 L 106.84375 -59.546875 L 106.84375 -102.640625 C 106.84375 -105.441406 106.015625 -107.609375 104.359375 -109.140625 C 101.679688 -111.691406 98.8125 -112.96875 95.75 -112.96875 L 93.4375 -112.96875 L 93.4375 -114.890625 L 132.5 -114.890625 L 132.5 -112.96875 L 130.203125 -112.96875 C 127.273438 -112.96875 124.722656 -112.007812 122.546875 -110.09375 C 120.378906 -108.1875 119.234375 -105.828125 119.109375 -103.015625 L 119.109375 -12.0625 C 119.234375 -9.25 120.0625 -7.144531 121.59375 -5.75 C 124.40625 -3.195312 127.273438 -1.921875 130.203125 -1.921875 L 132.5 -1.921875 L 132.5 0 L 93.4375 0 L 93.4375 -1.921875 Z M 95.75 -1.921875 "/></g></g><g style="fill:#121212;fill-opacity:1;"><g transform="translate(742.494784, 153.532199)"><path style="stroke:none" d="M 126.375 -1.921875 L 127.90625 -1.921875 L 127.90625 0 L 88.65625 0 L 88.65625 -1.921875 L 90.1875 -1.921875 C 92.613281 -1.921875 94.460938 -2.75 95.734375 -4.40625 C 97.015625 -6.0625 97.65625 -7.625 97.65625 -9.09375 C 97.65625 -10.5625 97.398438 -12 96.890625 -13.40625 L 86.359375 -38.875 L 37.90625 -38.875 L 27.375 -13.984375 C 26.738281 -12.316406 26.421875 -10.75 26.421875 -9.28125 C 26.421875 -7.8125 27.054688 -6.21875 28.328125 -4.5 C 29.609375 -2.78125 31.523438 -1.921875 34.078125 -1.921875 L 35.609375 -1.921875 L 35.609375 0 L -0.953125 0 L -0.953125 -1.921875 L 0.578125 -1.921875 C 3.253906 -1.921875 5.960938 -2.84375 8.703125 -4.6875 C 11.453125 -6.539062 13.722656 -9.316406 15.515625 -13.015625 C 43.472656 -72.765625 58.023438 -104.039062 59.171875 -106.84375 C 61.335938 -112.207031 62.484375 -115.785156 62.609375 -117.578125 L 64.34375 -117.578125 L 111.640625 -13.015625 C 115.335938 -5.617188 120.25 -1.921875 126.375 -1.921875 Z M 40.40625 -44.609375 L 84.0625 -44.609375 L 62.609375 -97.078125 Z M 40.40625 -44.609375 "/></g></g><g style="fill:#121212;fill-opacity:1;"><g transform="translate(886.492693, 153.532199)"><path style="stroke:none" d="M 128.09375 -112.96875 L 126.5625 -112.96875 C 123.757812 -112.96875 121.015625 -112.039062 118.328125 -110.1875 C 115.648438 -108.34375 113.351562 -105.570312 111.4375 -101.875 C 83.613281 -42.125 69.125 -10.847656 67.96875 -8.046875 C 65.800781 -2.679688 64.65625 0.894531 64.53125 2.6875 L 62.796875 2.6875 L 15.5 -101.671875 C 11.800781 -109.203125 6.890625 -112.96875 0.765625 -112.96875 L -0.765625 -112.96875 L -0.765625 -114.890625 L 38.484375 -114.890625 L 38.484375 -112.96875 L 36.953125 -112.96875 C 34.523438 -112.96875 32.703125 -112.109375 31.484375 -110.390625 C 30.273438 -108.671875 29.671875 -107.109375 29.671875 -105.703125 C 29.671875 -104.296875 29.863281 -102.828125 30.25 -101.296875 L 64.53125 -17.8125 L 99.765625 -100.90625 C 100.398438 -102.570312 100.71875 -104.140625 100.71875 -105.609375 C 100.71875 -107.078125 100.078125 -108.671875 98.796875 -110.390625 C 97.523438 -112.109375 95.613281 -112.96875 93.0625 -112.96875 L 91.71875 -112.96875 L 91.71875 -114.890625 L 128.09375 -114.890625 Z M 128.09375 -112.96875 "/></g></g><g style="fill:#121212;fill-opacity:1;"><g transform="translate(1030.490603, 153.532199)"><path style="stroke:none" d="M 126.375 -1.921875 L 127.90625 -1.921875 L 127.90625 0 L 88.65625 0 L 88.65625 -1.921875 L 90.1875 -1.921875 C 92.613281 -1.921875 94.460938 -2.75 95.734375 -4.40625 C 97.015625 -6.0625 97.65625 -7.625 97.65625 -9.09375 C 97.65625 -10.5625 97.398438 -12 96.890625 -13.40625 L 86.359375 -38.875 L 37.90625 -38.875 L 27.375 -13.984375 C 26.738281 -12.316406 26.421875 -10.75 26.421875 -9.28125 C 26.421875 -7.8125 27.054688 -6.21875 28.328125 -4.5 C 29.609375 -2.78125 31.523438 -1.921875 34.078125 -1.921875 L 35.609375 -1.921875 L 35.609375 0 L -0.953125 0 L -0.953125 -1.921875 L 0.578125 -1.921875 C 3.253906 -1.921875 5.960938 -2.84375 8.703125 -4.6875 C 11.453125 -6.539062 13.722656 -9.316406 15.515625 -13.015625 C 43.472656 -72.765625 58.023438 -104.039062 59.171875 -106.84375 C 61.335938 -112.207031 62.484375 -115.785156 62.609375 -117.578125 L 64.34375 -117.578125 L 111.640625 -13.015625 C 115.335938 -5.617188 120.25 -1.921875 126.375 -1.921875 Z M 40.40625 -44.609375 L 84.0625 -44.609375 L 62.609375 -97.078125 Z M 40.40625 -44.609375 "/></g></g><g style="fill:#121212;fill-opacity:1;"><g transform="translate(1187.892486, 153.532199)"><path style="stroke:none" d="M 72.765625 2.6875 C 53.234375 2.550781 37.816406 -2.875 26.515625 -13.59375 C 15.222656 -24.320312 9.578125 -38.972656 9.578125 -57.546875 C 9.578125 -76.117188 15.222656 -90.765625 26.515625 -101.484375 C 37.816406 -112.210938 53.234375 -117.578125 72.765625 -117.578125 C 80.679688 -117.578125 88.660156 -116.550781 96.703125 -114.5 C 104.742188 -112.457031 111.703125 -109.648438 117.578125 -106.078125 L 121.78125 -78.890625 L 120.0625 -78.890625 C 114.570312 -100.847656 98.742188 -111.828125 72.578125 -111.828125 C 57.378906 -111.828125 45.375 -106.972656 36.5625 -97.265625 C 27.757812 -87.566406 23.359375 -74.296875 23.359375 -57.453125 C 23.359375 -46.472656 25.335938 -36.925781 29.296875 -28.8125 C 33.253906 -20.707031 39 -14.421875 46.53125 -9.953125 C 54.0625 -5.484375 62.804688 -3.25 72.765625 -3.25 C 82.722656 -3.25 91.4375 -4.75 98.90625 -7.75 C 106.375 -10.75 112.5625 -15.695312 117.46875 -22.59375 C 122.382812 -29.488281 125.164062 -38.039062 125.8125 -48.25 L 127.53125 -48.25 L 125.421875 -22.015625 C 120.441406 -14.359375 113.226562 -8.328125 103.78125 -3.921875 C 94.332031 0.484375 83.992188 2.6875 72.765625 2.6875 Z M 72.765625 2.6875 "/></g></g><g style="fill:#121212;fill-opacity:1;"><g transform="translate(1356.209029, 153.532199)"><path style="stroke:none" d="M 13.21875 -1.921875 C 16.65625 -1.921875 19.648438 -2.941406 22.203125 -4.984375 C 24.765625 -7.023438 26.046875 -9.445312 26.046875 -12.25 L 26.046875 -102.640625 C 26.046875 -105.441406 24.765625 -107.863281 22.203125 -109.90625 C 19.648438 -111.945312 16.585938 -112.96875 13.015625 -112.96875 L 10.53125 -112.96875 L 10.53125 -114.890625 L 53.8125 -114.890625 L 53.8125 -112.96875 L 51.3125 -112.96875 C 47.863281 -112.96875 44.894531 -112.007812 42.40625 -110.09375 C 39.925781 -108.1875 38.554688 -105.828125 38.296875 -103.015625 L 38.296875 -12.0625 C 38.421875 -9.25 39.757812 -6.851562 42.3125 -4.875 C 44.863281 -2.90625 47.863281 -1.921875 51.3125 -1.921875 L 53.8125 -1.921875 L 54 0 L 10.53125 0 L 10.53125 -1.921875 Z M 13.21875 -1.921875 "/></g></g><g style="fill:#121212;fill-opacity:1;"><g transform="translate(1453.867544, 153.532199)"><path style="stroke:none" d="M 135.953125 -57.453125 C 135.953125 -39.703125 130.429688 -25.6875 119.390625 -15.40625 C 108.347656 -5.132812 93.378906 0 74.484375 0 L 10.53125 0 L 10.53125 -1.921875 L 13.015625 -1.921875 C 16.078125 -1.921875 18.628906 -2.941406 20.671875 -4.984375 C 22.722656 -7.023438 23.8125 -9.445312 23.9375 -12.25 L 23.9375 -102.640625 C 23.8125 -105.703125 22.691406 -108.1875 20.578125 -110.09375 C 18.472656 -112.007812 15.890625 -112.96875 12.828125 -112.96875 L 10.53125 -112.96875 L 10.53125 -114.890625 L 74.484375 -114.890625 C 86.992188 -114.890625 97.875 -112.59375 107.125 -108 C 116.382812 -103.40625 123.503906 -96.765625 128.484375 -88.078125 C 133.460938 -79.398438 135.953125 -69.191406 135.953125 -57.453125 Z M 36.375 -109.140625 L 36.375 -5.75 L 74.484375 -5.75 C 89.171875 -5.75 100.789062 -10.375 109.34375 -19.625 C 117.894531 -28.882812 122.171875 -41.492188 122.171875 -57.453125 C 122.171875 -73.398438 117.894531 -86 109.34375 -95.25 C 100.789062 -104.507812 89.171875 -109.140625 74.484375 -109.140625 Z M 36.375 -109.140625 "/></g></g></g></svg>